<svg xmlns="http://www.w3.org/2000/svg" viewBox="0 0 48 48" fill="none">
  <!-- House outline -->
  <path d="M24 5L3 23h5v19h32V23h5L24 5z" stroke="#58a6ff" stroke-width="2.5" stroke-linejoin="round" stroke-linecap="round" fill="none"/>

  <!-- Circuit pattern inside - central hub -->
  <circle cx="24" cy="27" r="3" fill="#58a6ff"/>

  <!-- Vertical lines -->
  <line x1="24" y1="24" x2="24" y2="17" stroke="#58a6ff" stroke-width="1.8" stroke-linecap="round"/>
  <line x1="24" y1="30" x2="24" y2="37" stroke="#58a6ff" stroke-width="1.8" stroke-linecap="round"/>

  <!-- Horizontal lines -->
  <line x1="21" y1="27" x2="14" y2="27" stroke="#58a6ff" stroke-width="1.8" stroke-linecap="round"/>
  <line x1="27" y1="27" x2="34" y2="27" stroke="#58a6ff" stroke-width="1.8" stroke-linecap="round"/>

  <!-- Diagonal lines -->
  <line x1="26" y1="25" x2="30" y2="21" stroke="#58a6ff" stroke-width="1.8" stroke-linecap="round"/>
  <line x1="22" y1="25" x2="18" y2="21" stroke="#58a6ff" stroke-width="1.8" stroke-linecap="round"/>
  <line x1="26" y1="29" x2="30" y2="33" stroke="#58a6ff" stroke-width="1.8" stroke-linecap="round"/>
  <line x1="22" y1="29" x2="18" y2="33" stroke="#58a6ff" stroke-width="1.8" stroke-linecap="round"/>

  <!-- Endpoint dots -->
  <circle cx="24" cy="16" r="1.8" fill="#58a6ff"/>
  <circle cx="24" cy="38" r="1.8" fill="#58a6ff"/>
  <circle cx="13" cy="27" r="1.8" fill="#58a6ff"/>
  <circle cx="35" cy="27" r="1.8" fill="#58a6ff"/>
  <circle cx="31" cy="20" r="1.8" fill="#58a6ff"/>
  <circle cx="17" cy="20" r="1.8" fill="#58a6ff"/>
  <circle cx="31" cy="34" r="1.8" fill="#58a6ff"/>
  <circle cx="17" cy="34" r="1.8" fill="#58a6ff"/>
</svg>
