<svg xmlns="http://www.w3.org/2000/svg" viewBox="0 0 48 48" width="48" height="48">
  <!-- Art Deco: Doorway with Figures -->

  <!-- Radiating lines above arch -->
  <line x1="24" y1="10" x2="24" y2="4" stroke="#fff" stroke-width="0.5"/>
  <line x1="24" y1="10" x2="16" y2="4" stroke="#fff" stroke-width="0.5"/>
  <line x1="24" y1="10" x2="32" y2="4" stroke="#fff" stroke-width="0.5"/>
  <line x1="24" y1="10" x2="10" y2="5" stroke="#fff" stroke-width="0.5"/>
  <line x1="24" y1="10" x2="38" y2="5" stroke="#fff" stroke-width="0.5"/>
  <line x1="24" y1="10" x2="6" y2="7" stroke="#fff" stroke-width="0.5"/>
  <line x1="24" y1="10" x2="42" y2="7" stroke="#fff" stroke-width="0.5"/>
  <line x1="24" y1="10" x2="4" y2="10" stroke="#fff" stroke-width="0.5"/>
  <line x1="24" y1="10" x2="44" y2="10" stroke="#fff" stroke-width="0.5"/>

  <!-- Outer octagonal frame -->
  <polygon points="18,4 30,4 44,18 44,30 30,44 18,44 4,30 4,18" fill="none" stroke="#fff" stroke-width="1.5"/>
  <polygon points="19,6 29,6 42,19 42,29 29,42 19,42 6,29 6,19" fill="none" stroke="#fff" stroke-width="0.5"/>

  <!-- White background for doorway -->
  <rect x="10" y="10" width="28" height="34" fill="#fff"/>

  <!-- Art deco arched doorway -->
  <path d="M12,42 L12,18 Q12,10 24,10 Q36,10 36,18 L36,42" fill="none" stroke="#fff" stroke-width="1.5"/>
  <!-- Inner arch line -->
  <path d="M14,42 L14,19 Q14,12 24,12 Q34,12 34,19 L34,42" fill="none" stroke="#fff" stroke-width="0.5"/>

  <!-- Stepped side details (left) -->
  <rect x="8" y="14" width="3" height="1" fill="#fff"/>
  <rect x="9" y="16" width="2" height="1" fill="#fff"/>
  <rect x="10" y="18" width="1" height="1" fill="#fff"/>

  <!-- Stepped side details (right) -->
  <rect x="37" y="14" width="3" height="1" fill="#fff"/>
  <rect x="37" y="16" width="2" height="1" fill="#fff"/>
  <rect x="37" y="18" width="1" height="1" fill="#fff"/>

  <!-- Keystone accent at top of arch -->
  <polygon points="24,10 22,13 26,13" fill="#fff"/>

  <!-- Art deco fanlight in arch -->
  <line x1="24" y1="14" x2="24" y2="18" stroke="#fff" stroke-width="0.5"/>
  <line x1="24" y1="14" x2="18" y2="19" stroke="#fff" stroke-width="0.5"/>
  <line x1="24" y1="14" x2="30" y2="19" stroke="#fff" stroke-width="0.5"/>
  <!-- Fanlight arc -->
  <path d="M16,20 Q16,14 24,14 Q32,14 32,20" fill="none" stroke="#fff" stroke-width="0.5"/>

  <!-- Person 1 (left) - small geometric figure in doorway -->
  <circle cx="20" cy="30" r="2" fill="#fff"/>
  <polygon points="17,32.5 23,32.5 22,37 20,38.5 18,37" fill="#fff"/>
  <rect x="18.2" y="37" width="1.2" height="3.5" fill="#fff"/>
  <rect x="20.6" y="37" width="1.2" height="3.5" fill="#fff"/>

  <!-- Person 2 (right) - small geometric figure in doorway -->
  <circle cx="28" cy="30" r="2" fill="#fff"/>
  <polygon points="25,32.5 31,32.5 30,37 28,38.5 26,37" fill="#fff"/>
  <rect x="26.2" y="37" width="1.2" height="3.5" fill="#fff"/>
  <rect x="28.6" y="37" width="1.2" height="3.5" fill="#fff"/>

  <!-- Floor line -->
  <line x1="12" y1="42" x2="36" y2="42" stroke="#fff" stroke-width="1"/>

  <!-- Stepped corner accents -->
  <rect x="7" y="7" width="3" height="1" fill="#fff"/>
  <rect x="8" y="8" width="1" height="2" fill="#fff"/>
  <rect x="38" y="7" width="3" height="1" fill="#fff"/>
  <rect x="39" y="8" width="1" height="2" fill="#fff"/>
  <rect x="7" y="40" width="3" height="1" fill="#fff"/>
  <rect x="8" y="38" width="1" height="2" fill="#fff"/>
  <rect x="38" y="40" width="3" height="1" fill="#fff"/>
  <rect x="39" y="38" width="1" height="2" fill="#fff"/>
</svg>