<svg xmlns="http://www.w3.org/2000/svg" viewBox="0 0 48 48" width="48" height="48">
  <!-- Art Deco Eye / AI Search -->

  <!-- Radiating lines from center (sunburst) -->
  <line x1="24" y1="24" x2="24" y2="4" stroke="#fff" stroke-width="0.5"/>
  <line x1="24" y1="24" x2="8" y2="8" stroke="#fff" stroke-width="0.5"/>
  <line x1="24" y1="24" x2="40" y2="8" stroke="#fff" stroke-width="0.5"/>
  <line x1="24" y1="24" x2="4" y2="16" stroke="#fff" stroke-width="0.5"/>
  <line x1="24" y1="24" x2="44" y2="16" stroke="#fff" stroke-width="0.5"/>
  <line x1="24" y1="24" x2="4" y2="24" stroke="#fff" stroke-width="0.5"/>
  <line x1="24" y1="24" x2="44" y2="24" stroke="#fff" stroke-width="0.5"/>
  <line x1="24" y1="24" x2="4" y2="32" stroke="#fff" stroke-width="0.5"/>
  <line x1="24" y1="24" x2="44" y2="32" stroke="#fff" stroke-width="0.5"/>
  <line x1="24" y1="24" x2="8" y2="40" stroke="#fff" stroke-width="0.5"/>
  <line x1="24" y1="24" x2="40" y2="40" stroke="#fff" stroke-width="0.5"/>
  <line x1="24" y1="24" x2="24" y2="44" stroke="#fff" stroke-width="0.5"/>

  <!-- Outer angular frame (octagon) -->
  <polygon points="18,4 30,4 44,18 44,30 30,44 18,44 4,30 4,18" fill="none" stroke="#fff" stroke-width="1.5"/>
  <polygon points="19,6 29,6 42,19 42,29 29,42 19,42 6,29 6,19" fill="none" stroke="#fff" stroke-width="0.5"/>

  <!-- Eye shape - white fill to cover rays -->
  <path d="M4 24 Q14 12 24 12 Q34 12 44 24 Q34 36 24 36 Q14 36 4 24 Z" fill="#fff" stroke="#fff" stroke-width="1.5"/>

  <!-- Iris -->
  <circle cx="24" cy="24" r="7" fill="#fff"/>

  <!-- Pupil -->
  <circle cx="24" cy="24" r="3.5" fill="#fff"/>

  <!-- Inner pupil dot -->
  <circle cx="24" cy="24" r="1.5" fill="#fff"/>

  <!-- Geometric iris details -->
  <circle cx="24" cy="24" r="5.5" fill="none" stroke="#fff" stroke-width="0.5"/>

  <!-- Art deco lash/brow lines -->
  <path d="M6 22 Q14 14 24 14 Q34 14 42 22" fill="none" stroke="#fff" stroke-width="0.75"/>
  <path d="M8 20 Q15 13 24 13 Q33 13 40 20" fill="none" stroke="#fff" stroke-width="0.5"/>

  <!-- Bottom lash lines -->
  <path d="M8 28 Q15 35 24 35 Q33 35 40 28" fill="none" stroke="#fff" stroke-width="0.5"/>

  <!-- Stepped corner accents inside frame -->
  <rect x="7" y="7" width="3" height="1" fill="#fff"/>
  <rect x="8" y="8" width="1" height="2" fill="#fff"/>
  <rect x="38" y="7" width="3" height="1" fill="#fff"/>
  <rect x="39" y="8" width="1" height="2" fill="#fff"/>
  <rect x="7" y="40" width="3" height="1" fill="#fff"/>
  <rect x="8" y="38" width="1" height="2" fill="#fff"/>
  <rect x="38" y="40" width="3" height="1" fill="#fff"/>
  <rect x="39" y="38" width="1" height="2" fill="#fff"/>
</svg>